PathFileType	4	(X/Y/Z)	Patient4_TMGait_0pt5_01_left_01.trc.trc
DataRate	CameraRate	NumFrames	NumMarkers	Units	OrigDataRate	OrigDataStartFrame	OrigNumFrames
74.468085106383	74.468085106383	4	33	mm	74.468085106383	18	       141
Frame#	Time	L.ASIS			Sacral			L.Shoulder			Chest			R.Shoulder			Neck			R.ASIS			R.Thigh.Superior			R.Thigh.Lateral			R.Thigh.Inferior			R.Patella			L.Thigh.Superior			L.Thigh.Lateral			L.Thigh.Inferior			L.Patella			L.Shank.Superior			L.Shank.Lateral			L.Shank.Inferior			R.Shank.Superior			R.Shank.Lateral			R.Shank.Inferior			R.Heel			R.Midfoot.Superior			R.Midfoot.Lateral			R.Toe			L.Heel			L.Midfoot.Lateral			L.Midfoot.Superior			L.Toe			L.Elbow			L.Wrist			R.Elbow			R.Wrist			
		X1	Y1	Z1	X2	Y2	Z2	X3	Y3	Z3	X4	Y4	Z4	X5	Y5	Z5	X6	Y6	Z6	X7	Y7	Z7	X8	Y8	Z8	X9	Y9	Z9	X10	Y10	Z10	X11	Y11	Z11	X12	Y12	Z12	X13	Y13	Z13	X14	Y14	Z14	X15	Y15	Z15	X16	Y16	Z16	X17	Y17	Z17	X18	Y18	Z18	X19	Y19	Z19	X20	Y20	Z20	X21	Y21	Z21	X22	Y22	Z22	X23	Y23	Z23	X24	Y24	Z24	X25	Y25	Z25	X26	Y26	Z26	X27	Y27	Z27	X28	Y28	Z28	X29	Y29	Z29	X30	Y30	Z30	X31	Y31	Z31	X32	Y32	Z32	X33	Y33	Z33	

18	1.398285714286	723.681496272655	964.608211434016	350.212225129329	531.499211202851	1004.256324593598	534.944887351196	675.252816890732	1439.413588366021	345.342376986892	799.272135406556	1365.722150810130	488.907481692881	739.623445569495	1433.353989716788	675.721740948946	693.517733132276	1495.350406201026	497.523443978774	769.303413704969	938.011546605081	621.038579252095	782.577215468399	730.294140000627	587.468826269363	693.232132878181	628.994009870499	654.016581486107	752.555367851735	569.247825263084	567.664744659255	740.012422093586	481.185595828814	572.632156602254	799.237865215211	773.801421191052	378.559773143148	748.608901028902	648.864846848108	304.916297432735	846.602095822333	585.726155003020	371.931795193567	875.127791102863	525.286657345317	368.625088937452	864.723360844111	456.333071629595	357.330416894952	814.356663011367	319.802881984938	305.345618851126	910.711364460636	231.005192078859	363.565485533354	704.582690318547	395.668083589783	580.600045950280	626.464324350232	298.158356870011	642.292555885836	655.906836417953	200.983870695056	577.350158063361	508.094189169655	43.105718523251	545.560951281763	678.242197362998	96.180950254618	585.030287547828	589.149723026594	36.250581714533	622.384071434155	797.355935432320	42.976225705264	618.481924437267	845.313047559254	41.774653324546	402.182016752655	922.842809151966	52.572053089728	325.867623300955	982.539486650281	139.502562176485	345.453724905335	1120.234573461788	126.922999967424	328.320660391696	560.315490149296	1100.569382233379	245.383841075327	554.861241652952	840.231418381124	246.056657621283	825.473553598346	1101.241615626914	788.664805792137	1068.341209344179	1092.101709240713	716.927811681735	
19	1.411714285714	724.536705663593	963.613325162569	349.073855366277	532.509800597847	1003.305221944601	534.035272356972	674.838500124239	1438.920441906935	344.241056176463	799.124926602458	1365.370654745372	487.585402041870	739.476403553271	1432.637692820666	674.504527449078	693.091907890127	1494.664949513986	496.480430911089	770.380881831122	937.586097438434	619.994487126724	781.928009586575	729.315978322956	587.042889905464	691.284997258273	628.607437743769	653.608749317857	750.044352781621	568.264297434599	567.577644001100	736.603442628434	480.258173583495	572.528813671820	799.590360397388	772.204067458866	377.098731038397	747.344387999201	646.755572628966	304.981308789716	846.027078936849	583.847457352431	370.872440658139	874.416160497557	523.907428050703	368.249728911573	864.520042817930	455.220677496090	357.530240743134	815.278004348066	318.014902852646	306.923110405676	912.991086269580	230.728186310063	364.856289312517	700.519090693175	395.019154625196	580.411544895237	621.683030216051	298.168039297358	642.228477646385	650.314924302486	200.694466989059	577.319848017598	501.462686049939	43.315087509550	545.609955817521	671.701058611945	96.101823748734	585.114460391146	582.495893599347	36.258789680749	622.292884974615	790.709689602028	42.631446540894	618.566101117620	849.634705041384	42.050241670280	405.246586299587	926.560902715997	52.195098619891	328.412500250989	986.135733708491	139.125349063770	346.909017413358	1123.515855748634	126.538550244677	329.187354976075	556.581596128766	1101.578030593224	244.640644592146	550.396393735499	841.190699017261	246.600239116135	829.632410555658	1100.923685712958	784.660906827328	1071.681931803956	1100.008802941739	710.988157536399	
20	1.425142857143	725.706534379073	962.512076419402	347.833427253800	533.658150481173	1002.233037907729	532.890725736059	674.332184360776	1438.300790151517	342.948008736452	798.923473877836	1364.999752088185	486.101960941874	739.199680159844	1431.875300428040	673.118341115302	692.513992218842	1493.880187885739	495.255597565013	771.586365636291	937.109831469746	618.903724459921	781.333771355107	728.248954181161	586.649314550646	689.334202145533	628.195781873299	653.191900298050	747.606449732050	567.229903720446	567.533670689913	733.212909191317	479.274900958553	572.405926641040	800.749243612128	770.820495888855	375.582114104435	746.778834754021	644.609761326129	305.247526731421	846.279484023370	582.087537990749	369.843134010411	874.401772376378	522.212261387189	367.914248239715	864.514848013285	453.557688773305	357.853598257385	815.165454462620	316.165237367556	308.667490816077	913.417129865856	229.534945497895	366.264802357414	696.473139992129	394.334792762469	580.228217040620	616.879465627601	298.168251386052	642.159330494068	644.712736915204	200.394107545225	577.297163122191	494.804286013707	43.509141839629	545.650705060919	665.132537484738	96.032042631364	585.208480616934	575.808130787436	36.257825805295	622.206130348702	784.017328966494	42.302868668441	618.652460581725	850.444825566628	42.108225344847	408.367741734510	926.627157499348	51.206188909746	330.806273606007	986.968683521611	137.386795893842	348.377285978064	1123.808682289432	123.494262042971	329.545270629157	553.269443749591	1102.325388817926	243.668176482284	546.823847068924	841.806403750901	246.786869781714	833.435911636887	1100.599322701680	780.639047391506	1074.551301615147	1107.058532066086	705.218334005693	
21	1.438571428571	727.201914847756	961.289710451073	346.508990430774	534.941304162244	1001.043002242190	531.511110961068	673.755138238470	1437.523358037329	341.445599722485	798.686905196634	1364.590680241854	484.449202281950	738.805850951950	1431.064537705284	671.548230609922	691.801746376380	1492.984471463545	493.825638033831	772.910228368466	936.557908711505	617.781604655924	780.811165407925	727.077725144953	586.294803689685	687.406859359286	627.741616140446	652.761043675445	745.273201404882	566.135106664413	567.518422454762	729.867656868116	478.213608469430	572.241687332719	802.631000514759	769.580094295997	374.080505362723	746.907013065981	642.449526644408	305.634050634256	847.257516280889	580.419887134430	368.902270275712	874.971336562625	520.218945486627	367.667711381949	864.712607114694	451.392150915462	358.288608915457	814.247766515098	314.193237898822	310.465229807907	912.323637962245	227.455419551529	367.764510427277	692.467997602519	393.595937264239	580.031019776796	612.073001274844	298.143121514423	642.070840270496	639.104549420938	200.067506191227	577.267911200398	488.121375425308	43.676883380107	545.683780685110	658.530707935045	95.971004329955	585.299973028206	569.089807459579	36.247227685750	622.128885316140	777.283478882282	41.987553242717	618.743035460755	848.275524971654	41.820184708006	411.395968459500	923.639790362053	49.609418041049	332.973408278390	985.514269281728	134.381746192419	349.880489722014	1121.649801800816	118.064770037158	329.547167281969	550.443120195520	1102.735886239828	242.456894698868	544.140691530977	842.026774730183	246.608956283247	836.854440623875	1100.259343335966	776.666581734057	1076.990882541792	1113.190817155878	699.656903326396	
